<?xml version="1.0" standalone="no"?>
<!DOCTYPE svg PUBLIC "-//W3C//DTD SVG 20010904//EN"
 "http://www.w3.org/TR/2001/REC-SVG-20010904/DTD/svg10.dtd">
<svg version="1.0" xmlns="http://www.w3.org/2000/svg"
 width="242.000000pt" height="171.000000pt" viewBox="0 0 242.000000 171.000000"
 preserveAspectRatio="xMidYMid meet">

<g transform="translate(0.000000,171.000000) scale(0.100000,-0.100000)"
fill="#fff" stroke="none">
<path d="M18 1103 c-4 -476 -2 -619 8 -658 48 -184 215 -356 404 -416 87 -28
250 -30 335 -5 91 27 185 81 249 141 l57 55 671 2 671 3 -538 680 c-295 374
-543 686 -549 693 -10 10 -23 -1 -67 -58 l-54 -72 -3 121 -3 121 -588 0 -588
0 -5 -607z m1172 468 l0 -118 -121 -154 c-67 -85 -127 -160 -134 -168 -11 -11
-22 -9 -67 12 -80 39 -162 57 -263 57 -109 0 -185 -18 -278 -67 -121 -64 -221
-172 -275 -298 l-21 -50 -1 453 0 452 580 0 580 0 0 -119z m668 -681 l510
-645 -636 -3 c-349 -1 -637 -1 -639 1 -2 2 13 31 32 63 20 32 45 88 56 124 20
62 21 86 19 532 l-1 468 57 70 c55 69 58 71 75 53 10 -10 247 -308 527 -663z
m-1126 279 c29 -6 81 -24 116 -40 l64 -28 -61 -78 c-33 -43 -132 -168 -219
-278 l-158 -200 -222 -3 -222 -2 0 69 c0 160 53 285 169 400 81 81 162 129
261 155 67 18 200 20 272 5z m-325 -706 c-25 -32 -77 -98 -116 -148 l-71 -90
405 -3 c233 -1 405 -6 405 -11 0 -15 -101 -91 -161 -121 -89 -45 -163 -63
-263 -62 -157 1 -277 48 -387 149 -95 88 -153 190 -182 321 l-5 22 210 0 209
0 -44 -57z"/>
</g>
</svg>
